# AST/ASF file generated using VICON BodyLanguage
# -----------------------------------------------
:version 1.10
:name VICON
:units
  mass 1.0
  length 0.45
  angle deg
:documentation
   .ast/.asf automatically generated from VICON data using
   VICON BodyBuilder and BodyLanguage model FoxedUp or BRILLIANT.MOD
:root
   order TX TY TZ RX RY RZ
   axis XYZ
   position 0 0 0  
   orientation 0 0 0 
:bonedata
  begin
     id 1 
     name lhipjoint
     direction 0.440178 -0.822639 0.359871 
     length 2.53113 
     axis 0 0 0  XYZ
  end
  begin
     id 2 
     name lfemur
     direction 0.34202 -0.939693 0  
     length 7.88132  
     axis 0 0 20  XYZ
    dof rx ry rz
    limits (-160.0 20.0)
           (-70.0 70.0)
           (-60.0 70.0)
  end
  begin
     id 3 
     name ltibia
     direction 0.34202 -0.939693 0   
     length 8.43783   
     axis 0 0 20   XYZ
    dof rx
    limits (-10.0 170.0)
  end
  begin
     id 4 
     name lfoot
     direction 0.0886351 -0.243523 0.965837   
     length 2.63414   
     axis -90 7.62852e-016 20   XYZ
    dof rx rz
    limits (-45.0 90.0)
           (-70.0 20.0)
  end
  begin
     id 5 
     name ltoes
     direction 1.53703e-011 -4.21717e-011 1   
     length 1.31427   
     axis -90 7.62852e-016 20   XYZ
    dof rx
    limits (-90.0 20.0)
  end
  begin
     id 6 
     name rhipjoint
     direction -0.399779 -0.839773 0.367367   
     length 2.47948  
     axis 0 0 0  XYZ 
  end
  begin
     id 7 
     name rfemur
     direction -0.34202 -0.939693 0   
     length 7.74806   
     axis 0 0 -20   XYZ
    dof rx ry rz
    limits (-160.0 20.0)
           (-70.0 70.0)
           (-70.0 60.0)
  end
  begin
     id 8 
     name rtibia
     direction -0.34202 -0.939693 0   
     length 8.74432   
     axis 0 0 -20   XYZ
    dof rx
    limits (-10.0 170.0)
 end
 begin
     id 9 
     name rfoot
     direction -0.108514 -0.298139 0.948334   
     length 2.66102  
     axis -90 -7.62852e-016 -20   XYZ
    dof rx rz
    limits (-45.0 90.0)
           (-20.0 70.0)
  end
  begin
     id 10 
     name rtoes
     direction -1.53392e-011 -4.22077e-011 1   
     length 1.31983   
     axis -90 -7.62852e-016 -20   XYZ
    dof rx
    limits (-90.0 20.0)
  end
  begin
     id 11 
     name lowerback
     direction 0.0113257 0.999866 0.0118602   
     length 2.58694   
     axis 0 0 0   XYZ
    dof rx ry rz
    limits (-20.0 45.0)
           (-30.0 30.0)
           (-30.0 30.0)
  end
  begin
     id 12 
     name upperback
     direction -0.0164747 0.995193 -0.0965375   
     length 2.52368   
     axis 0 0 0   XYZ
    dof rx ry rz
    limits (-20.0 45.0)
           (-30.0 30.0)
           (-30.0 30.0)
  end
  begin
     id 13 
     name thorax
     direction -0.0194301 0.99433 -0.104552   
     length 2.56099   
     axis 0 0 0   XYZ
    dof rx ry rz
    limits (-20.0 45.0)
           (-30.0 30.0)
           (-30.0 30.0)
  end
  begin
     id 14 
     name lowerneck
     direction 0.0148543 0.995587 -0.092657   
     length 1.71582   
     axis 0 0 0   XYZ
    dof rx ry rz
    limits (-20.0 45.0)
           (-30.0 30.0)
           (-30.0 30.0)
  end
  begin
     id 15 
     name upperneck
     direction -0.0135467 0.993656 -0.111639   
     length 1.68937   
     axis 0 0 0   XYZ
    dof rx ry rz
    limits (-20.0 45.0)
           (-30.0 30.0)
           (-30.0 30.0)
  end
  begin
     id 16
     name head
     direction -0.00615349 0.999547 -0.029448  
     length 1.7462  
     axis 0 0 0   XYZ
    dof rx ry rz
    limits (-20.0 45.0)
           (-30.0 30.0)
           (-30.0 30.0)
  end
  begin
     id 17 
     name lclavicle
     direction 0.988267 0.149885 0.0293713  
     length 4.47222  
     axis 0 0 0   XYZ
    dof ry rz
    limits (-20.0 10.0)
           (0.0 20.0)
  end
  begin
     id 18 
     name lhumerus
     direction 1 -4.48986e-011 -1.14833e-027   
     length 5.37148   
     axis 180 -30 -90   XYZ
    dof rx ry rz
    limits (-60.0 90.0)
           (-90.0 90.0)
           (-90.0 90.0)
  end
  begin
     id 19
     name lradius
     direction 0.999998 0.00170963 -0.000987055   
     length 3.94212   
     axis 180 -30 -90   XYZ
    dof rx
    limits (-10.0 170.0)
  end
  begin
     id 20
     name lwrist
     direction 0.999998 7.53149e-005 -0.00194706   
     length 1.97106   
     axis 4.65056e-015 90 90   XYZ
    dof ry
    limits (-180.0 0.0)
 end
  begin
     id 21 
     name lhand
     direction 1 -4.48973e-011 -1.31746e-026   
     length 1.17917   
     axis 8.4065e-015 90 90   XYZ
    dof rx rz
    limits (-90.0 90.0)
           (-45.0 45.0)
  end
  begin
     id 22 
     name lfingers
     direction 1 -4.49107e-011 -2.63492e-026   
     length 0.950679   
     axis 1.6813e-014 90 90   XYZ
    dof rx
    limits (0.0 90.0)
  end
  begin
     id 23
     name lthumb
     direction 0.707107 -6.35048e-011 0.707107   
     length 1.36499   
     axis -90 45 2.85299e-015   XYZ
    dof rx rz
    limits (-45.0 45.0)
           (-45.0 45.0)
  end
  begin
     id 24 
     name rclavicle
     direction -0.996699 0.0642895 -0.0495725   
     length 4.62611  
     axis 0 0 0   XYZ 
    dof ry rz
    limits (-10.0 20.0)
           (-20.0 0.0)
  end
  begin
     id 25 
     name rhumerus
     direction -1 -4.48919e-011 -2.41059e-027  
     length 5.4981   
     axis 180 30 90   XYZ
    dof rx ry rz
    limits (-90.0 60.0)
           (-90.0 90.0)
           (-90.0 90.0)
  end
  begin
     id 26 
     name rradius
     direction -0.999999 0.00118101 -0.000681858   
     length 3.48381   
     axis 180 30 90   XYZ
    dof rx
    limits (-10.0 170.0)
  end
  begin
     id 27 
     name rwrist
     direction -0.999999 0.000321823 -0.00132288   
     length 1.7419   
     axis 4.65056e-015 -90 -90   XYZ
    dof ry
    limits (-180.0 0.0)
  end
  begin
     id 28
     name rhand
     direction -1 -4.49022e-011 -1.31746e-026   
     length 1.34932   
     axis 8.4065e-015 -90 -90   XYZ
    dof rx rz
    limits (-90.0 90.0)
           (-45.0 45.0)
  end
  begin
     id 29
     name rfingers
     direction -1 -4.49178e-011 -2.63492e-026   
     length 1.08785   
     axis 1.6813e-014 -90 -90   XYZ
    dof rx
    limits (0.0 90.0)
  end
  begin
     id 30
     name rthumb
     direction -0.707107 -6.34713e-011 0.707107   
     length 1.56195   
     axis -90 -45 -2.85299e-015   XYZ
    dof rx rz
    limits (-45.0 45.0)
           (-45.0 45.0)
  end
:hierarchy
  begin
    root lhipjoint rhipjoint lowerback
    lhipjoint lfemur
    lfemur ltibia
    ltibia lfoot
    lfoot ltoes
    rhipjoint rfemur
    rfemur rtibia
    rtibia rfoot
    rfoot rtoes
    lowerback upperback
    upperback thorax
    thorax lowerneck lclavicle rclavicle
    lowerneck upperneck
    upperneck head
    lclavicle lhumerus
    lhumerus lradius
    lradius lwrist
    lwrist lhand lthumb
    lhand lfingers
    rclavicle rhumerus
    rhumerus rradius
    rradius rwrist
    rwrist rhand rthumb
    rhand rfingers
  end

#!OML:ASF X:\für Bonn\!DataBase\2005_08_10_Bjorn_Final\c3d\bjorn.ASF
:FULLY-SPECIFIED
:DEGREES
1
root 2.94313 17.6543 -28.5484 8.50641 -4.7207 359.638
lowerback 11.179 1.74659 1.07895
upperback 12.286 2.38508 -1.15519
thorax 6.84225 1.32394 -1.9411
lowerneck -7.49569 -2.36973 -1.32361
upperneck -16.3999 -2.97507 1.87604
head -4.02721 -1.48336 0.888643
rclavicle -1.69961e-014 1.4884e-014
rhumerus -39.2699 -15.1566 -90.9205
rradius 52.5626
rwrist -6.7543
rhand -26.4023 29.4122
rfingers 7.12502
rthumb 0.157179 -0.567532
lclavicle -1.69961e-014 1.4884e-014
lhumerus -33.8422 -6.97977 92.3689
lradius 44.9199
lwrist 1.29233
lhand -45.922 -27.6369
lfingers 7.12502
lthumb -18.6707 1.48703
rfemur -36.3582 -2.4684 15.3587
rtibia 64.4913
rfoot -25.9504 14.5382
rtoes -24.2256
lfemur -38.3849 -0.711448 -14.7088
ltibia 67.7675
lfoot -20.4448 1.85832
ltoes -33.596
2
root 2.96399 17.4853 -28.4036 8.58203 -4.66458 359.636
lowerback 10.8271 1.70226 1.14745
upperback 12.2092 2.32866 -1.10859
thorax 6.94822 1.29885 -1.91706
lowerneck -8.09331 -2.29611 -1.20165
upperneck -16.8063 -2.88309 1.76558
head -4.0734 -1.43847 0.826699
rclavicle 1.00386e-014 -1.49089e-016
rhumerus -38.1779 -15.3115 -91.2395
rradius 52.4203
rwrist -7.38919
rhand -25.8908 28.4867
rfingers 7.12502
rthumb 0.65118 -1.49208
lclavicle 1.00386e-014 -1.49089e-016
lhumerus -32.8824 -5.50279 92.129
lradius 43.7086
lwrist 1.88494
lhand -44.0029 -25.7564
lfingers 7.12502
lthumb -16.824 3.53474
rfemur -36.7573 -2.25474 15.1926
rtibia 66.3002
rfoot -27.5775 14.3548
rtoes -24.6727
lfemur -38.843 -0.291761 -15.0049
ltibia 69.6106
lfoot -21.7498 2.432
ltoes -34.56
3
root 2.98474 17.3492 -28.2535 8.69125 -4.61697 359.611
lowerback 10.3519 1.67013 1.25105
upperback 12.1213 2.28943 -1.06863
thorax 7.1137 1.28576 -1.91701
lowerneck -8.63471 -2.19787 -1.03904
upperneck -17.1554 -2.76409 1.63417
head -4.1108 -1.38214 0.750778
rclavicle -1.65737e-014 1.16289e-014
rhumerus -37.1574 -15.3183 -91.6634
rradius 52.8789
rwrist -7.8151
rhand -25.2657 27.31
rfingers 7.12502
rthumb 1.25492 -2.66608
lclavicle -1.65737e-014 1.16289e-014
lhumerus -32.2016 -4.1768 91.8659
lradius 43.1309
lwrist 2.08415
lhand -43.1409 -26.6814
lfingers 7.12502
lthumb -15.9941 2.67832
rfemur -37.0618 -2.04349 15.0381
rtibia 67.755
rfoot -28.7575 14.3917
rtoes -24.7031
lfemur -39.1518 0.116865 -15.2562
ltibia 71.0964
lfoot -22.801 3.00175
ltoes -35.7406
4
root 3.00462 17.2518 -28.0956 8.72785 -4.5682 359.582
lowerback 9.82582 1.64729 1.3915
upperback 12.0457 2.26353 -1.0437
thorax 7.32589 1.28363 -1.95248
lowerneck -9.03458 -2.123 -0.792792
upperneck -17.3731 -2.69696 1.40928
head -4.12731 -1.35438 0.630046
rclavicle -3.01656e-014 1.68222e-014
rhumerus -36.2934 -15.0876 -92.162
rradius 53.9007
rwrist -8.03655
rhand -25.2487 26.8926
rfingers 7.12502
rthumb 1.27138 -3.08338
lclavicle -3.01656e-014 1.68222e-014
lhumerus -31.8109 -3.30393 91.6723
lradius 43.2053
lwrist 1.98635
lhand -43.8789 -28.9044
lfingers 7.12502
lthumb -16.7047 0.396843
rfemur -37.034 -1.85564 14.8773
rtibia 68.7506
rfoot -29.5923 14.5894
rtoes -24.1851
lfemur -39.1458 0.485321 -15.4849
ltibia 72.1631
lfoot -23.5377 3.77732
ltoes -37.6447
5
root 3.02424 17.1972 -27.9295 8.60994 -4.49908 359.583
lowerback 9.36653 1.6126 1.47992
upperback 11.9617 2.21792 -1.00329
thorax 7.48812 1.26651 -1.94469
lowerneck -9.184 -2.07822 -0.579506
upperneck -17.5052 -2.67355 1.18514
head -4.15618 -1.34748 0.518063
rclavicle 8.99501e-015 -6.47293e-015
rhumerus -35.7737 -14.5591 -92.66
rradius 55.6105
rwrist -8.05919
rhand -25.585 26.7421
rfingers 7.12502
rthumb 0.94654 -3.23553
lclavicle 8.99501e-015 -6.47293e-015
lhumerus -31.6247 -2.90902 91.5893
lradius 43.9258
lwrist 1.43149
lhand -43.9877 -28.981
lfingers 7.12502
lthumb -16.8094 0.311396
rfemur -36.5074 -1.7808 14.6891
rtibia 69.2388
rfoot -30.1071 14.9595
rtoes -23.356
lfemur -38.7019 0.764562 -15.698
ltibia 72.764
lfoot -24.0436 4.52562
ltoes -39.775
6
root 3.04369 17.1857 -27.7539 8.31348 -4.4031 359.56
lowerback 8.98154 1.57487 1.61576
upperback 11.9049 2.16887 -0.948271
thorax 7.64177 1.25116 -1.95022
lowerneck -9.18519 -2.04182 -0.346886
upperneck -17.5614 -2.67052 0.910225
head -4.18451 -1.35039 0.38695
rclavicle 7.36124e-016 -1.04983e-015
rhumerus -35.5164 -13.7641 -93.1207
rradius 57.9513
rwrist -7.90265
rhand -25.161 26.7996
rfingers 7.12502
rthumb 1.35607 -3.17583
lclavicle 7.36124e-016 -1.04983e-015
lhumerus -31.5785 -3.37398 91.6926
lradius 45.6176
lwrist 1.25843
lhand -43.1062 -26.416
lfingers 7.12502
lthumb -15.9606 2.94646
rfemur -35.4188 -1.80584 14.5214
rtibia 69.1893
rfoot -30.2584 15.5625
rtoes -22.0385
lfemur -37.7954 0.88627 -15.8086
ltibia 72.9169
lfoot -24.3934 4.81771
ltoes -40.991
